<svg width="141" height="40" viewBox="0 0 141 40" fill="none" xmlns="http://www.w3.org/2000/svg">
<path d="M63.5286 29.3944L62.2127 25.4999H53.7905L52.4745 29.3944H48.6436L55.9253 8.58423H60.0779L67.3596 29.3944H63.5286ZM54.8432 22.2892H61.1599L58.0601 13.0733H57.9431L54.8432 22.2892Z" fill="black"/>
<path d="M69.4098 29.3944V8.58423H72.9191V29.3944H69.4098Z" fill="black"/>
<path d="M84.4656 14.7976C86.2982 14.7976 87.8189 15.4912 89.0276 16.8786C90.2559 18.2659 90.87 20.0695 90.87 22.2892C90.87 24.4892 90.2559 26.2828 89.0276 27.6702C87.7994 29.0575 86.2787 29.7512 84.4656 29.7512C83.5298 29.7512 82.6817 29.5629 81.9214 29.1863C81.1611 28.7899 80.5957 28.2845 80.2253 27.6702H80.1375V36.0537H76.6283V15.1543H79.8158L79.9621 16.9678H80.079C80.4495 16.3137 81.0343 15.7885 81.8337 15.3921C82.633 14.9958 83.5103 14.7976 84.4656 14.7976ZM83.6468 26.5702C84.7386 26.5702 85.6159 26.1837 86.2787 25.4108C86.9611 24.6378 87.3023 23.5973 87.3023 22.2892C87.3023 20.9613 86.9611 19.9109 86.2787 19.138C85.6159 18.365 84.7386 17.9785 83.6468 17.9785C82.6525 17.9785 81.8142 18.3056 81.1318 18.9596C80.469 19.5938 80.1375 20.3767 80.1375 21.3082V23.2406C80.1375 24.1721 80.469 24.9648 81.1318 25.6189C81.8142 26.2531 82.6525 26.5702 83.6468 26.5702Z" fill="black"/>
<path d="M104.078 15.1543H107.266V29.3944H104.078L103.903 27.581H103.815C103.425 28.235 102.83 28.7602 102.031 29.1566C101.251 29.553 100.384 29.7512 99.4284 29.7512C97.5958 29.7512 96.0653 29.0575 94.8371 27.6702C93.6089 26.2828 92.9947 24.4892 92.9947 22.2892C92.9947 20.0893 93.6089 18.2957 94.8371 16.9083C96.0653 15.5011 97.5958 14.7976 99.4284 14.7976C100.384 14.7976 101.251 14.9958 102.031 15.3921C102.83 15.7885 103.425 16.3137 103.815 16.9678H103.903L104.078 15.1543ZM103.756 23.2406V21.3082C103.756 20.3767 103.415 19.5938 102.733 18.9596C102.07 18.3056 101.232 17.9785 100.218 17.9785C99.1457 17.9785 98.2684 18.365 97.586 19.138C96.9037 19.9109 96.5625 20.9613 96.5625 22.2892C96.5625 23.5973 96.9037 24.6378 97.586 25.4108C98.2684 26.1837 99.1457 26.5702 100.218 26.5702C101.232 26.5702 102.07 26.2531 102.733 25.6189C103.415 24.9648 103.756 24.1721 103.756 23.2406Z" fill="black"/>
<path d="M117.316 29.7512C115.23 29.7512 113.515 29.0575 112.169 27.6702C110.844 26.2828 110.181 24.4892 110.181 22.2892C110.181 20.0893 110.844 18.2957 112.169 16.9083C113.515 15.5011 115.24 14.7976 117.345 14.7976C119.12 14.7976 120.621 15.293 121.849 16.284C123.077 17.2551 123.818 18.5632 124.072 20.2082L120.533 20.7731C120.397 19.9208 120.026 19.247 119.422 18.7515C118.837 18.2362 118.135 17.9785 117.316 17.9785C116.283 17.9785 115.425 18.3749 114.743 19.1677C114.08 19.9407 113.748 20.9812 113.748 22.2892C113.748 23.5973 114.08 24.6378 114.743 25.4108C115.425 26.1837 116.293 26.5702 117.345 26.5702C118.164 26.5702 118.876 26.3324 119.48 25.8567C120.104 25.3612 120.494 24.6874 120.65 23.8351L124.072 24.4C123.818 26.0053 123.068 27.3035 121.82 28.2945C120.572 29.2656 119.071 29.7512 117.316 29.7512Z" fill="black"/>
<path d="M137.021 15.1543H140.208V29.3944H137.021L136.845 27.581H136.758C136.368 28.235 135.773 28.7602 134.974 29.1566C134.194 29.553 133.326 29.7512 132.371 29.7512C130.538 29.7512 129.008 29.0575 127.78 27.6702C126.552 26.2828 125.937 24.4892 125.937 22.2892C125.937 20.0893 126.552 18.2957 127.78 16.9083C129.008 15.5011 130.538 14.7976 132.371 14.7976C133.326 14.7976 134.194 14.9958 134.974 15.3921C135.773 15.7885 136.368 16.3137 136.758 16.9678H136.845L137.021 15.1543ZM136.699 23.2406V21.3082C136.699 20.3767 136.358 19.5938 135.676 18.9596C135.013 18.3056 134.174 17.9785 133.161 17.9785C132.088 17.9785 131.211 18.365 130.529 19.138C129.846 19.9109 129.505 20.9613 129.505 22.2892C129.505 23.5973 129.846 24.6378 130.529 25.4108C131.211 26.1837 132.088 26.5702 133.161 26.5702C134.174 26.5702 135.013 26.2531 135.676 25.6189C136.358 24.9648 136.699 24.1721 136.699 23.2406Z" fill="black"/>
<path d="M20 39.9999C31.0457 39.9999 40 31.0456 40 19.9999C40 8.95418 31.0457 -0.00012207 20 -0.00012207C8.95431 -0.00012207 0 8.95418 0 19.9999C0 31.0456 8.95431 39.9999 20 39.9999Z" fill="#FCD72B"/>
<mask id="mask0_806_26424" style="mask-type:alpha" maskUnits="userSpaceOnUse" x="0" y="0" width="40" height="40">
<path d="M20 40C31.0457 40 40 31.0457 40 20C40 8.95431 31.0457 0 20 0C8.95431 0 0 8.95431 0 20C0 31.0457 8.95431 40 20 40Z" fill="black"/>
</mask>
<g mask="url(#mask0_806_26424)">
<path d="M27.7216 37.8454C27.4269 37.8454 27.1443 37.7283 26.9359 37.5199C26.7276 37.3116 26.6105 37.0289 26.6105 36.7343V16.6231C26.6109 15.664 26.3721 14.7198 25.9158 13.8762C25.4595 13.0325 24.8001 12.3159 23.9972 11.7911C24.2441 11.3869 24.3789 10.9242 24.3878 10.4506C24.3966 9.97694 24.2791 9.50951 24.0473 9.09636C23.8156 8.68321 23.478 8.33925 23.0692 8.09985C22.6605 7.86046 22.1953 7.73426 21.7216 7.73425V9.95648H21.6843C21.5793 9.33511 21.2576 8.77101 20.7763 8.36423C20.2949 7.95745 19.6851 7.73426 19.0549 7.73425V10.8454H18.1661V10.8507C16.8502 10.9077 15.6073 11.4706 14.6964 12.4219C13.7855 13.3732 13.2771 14.6394 13.2772 15.9565C13.2772 15.9645 13.2772 15.9725 13.2772 15.9805L10.2878 17.9129C10.4888 19.165 11.1294 20.3045 12.0946 21.1269C13.0597 21.9494 14.1086 22.4011 15.3767 22.4009C15.4256 22.4009 15.4727 22.4009 15.5207 22.4009L13.7216 41.3343L26.4994 42.2231L27.1661 40.5565L39.9376 40.112V37.8454H27.7216Z" fill="white"/>
<path d="M16.1107 16.9008C16.1109 16.7389 16.1753 16.5837 16.2898 16.4692C16.4043 16.3547 16.5595 16.2903 16.7214 16.29H18.4991C18.4991 16.6143 18.3704 16.9252 18.1412 17.1545C17.912 17.3837 17.6011 17.5125 17.2769 17.5125H16.0547L16.1107 16.9008Z" fill="#FCD72B"/>
</g>
</svg>
